name Walk1.mot
datacolumns 19
datarows 25
range 2.17800000 2.20200000
endheader

                time	   L_ground_force_vx	   L_ground_force_vy	   L_ground_force_vz	   L_ground_force_px	   L_ground_force_py	   L_ground_force_pz	   R_ground_force_vx	   R_ground_force_vy	   R_ground_force_vz	   R_ground_force_px	   R_ground_force_py	   R_ground_force_pz	   L_ground_torque_x	   L_ground_torque_y	   L_ground_torque_z	   R_ground_torque_x	   R_ground_torque_y	   R_ground_torque_z	
          2.17800000	        -59.17285164	        921.42608493	        -54.82662189	          0.63102059	          0.00000000	          0.14118564	          0.00000000	          0.00000000	          0.00000000	          0.00000000	          0.00000000	          0.00000000	          0.00000000	          4.95963437	          0.00000000	          0.00000000	          0.00000000	          0.00000000	
          2.17900000	        -58.63776349	        918.70588336	        -54.51853815	          0.63121822	          0.00000000	          0.14119289	          0.00000000	          0.00000000	          0.00000000	          0.00000000	          0.00000000	          0.00000000	          0.00000000	          4.89085491	          0.00000000	          0.00000000	          0.00000000	          0.00000000	
          2.18000000	        -58.11162754	        915.97990285	        -54.21459270	          0.63144316	          0.00000000	          0.14118640	          0.00000000	          0.00000000	          0.00000000	          0.00000000	          0.00000000	          0.00000000	          0.00000000	          4.81483381	          0.00000000	          0.00000000	          0.00000000	          0.00000000	
          2.18100000	        -57.58969532	        913.19069940	        -53.91666347	          0.63171720	          0.00000000	          0.14117350	          0.00000000	          0.00000000	          0.00000000	          0.00000000	          0.00000000	          0.00000000	          0.00000000	          4.73937266	          0.00000000	          0.00000000	          0.00000000	          0.00000000	
          2.18200000	        -57.07639053	        910.35148133	        -53.64603068	          0.63204284	          0.00000000	          0.14116414	          0.00000000	          0.00000000	          0.00000000	          0.00000000	          0.00000000	          0.00000000	          0.00000000	          4.67468552	          0.00000000	          0.00000000	          0.00000000	          0.00000000	
          2.18300000	        -56.57916052	        907.54534815	        -53.42868630	          0.63239073	          0.00000000	          0.14116579	          0.00000000	          0.00000000	          0.00000000	          0.00000000	          0.00000000	          0.00000000	          0.00000000	          4.62786688	          0.00000000	          0.00000000	          0.00000000	          0.00000000	
          2.18400000	        -56.09916865	        904.84875761	        -53.26810128	          0.63271610	          0.00000000	          0.14118544	          0.00000000	          0.00000000	          0.00000000	          0.00000000	          0.00000000	          0.00000000	          0.00000000	          4.59694493	          0.00000000	          0.00000000	          0.00000000	          0.00000000	
          2.18500000	        -55.63204620	        902.27589008	        -53.15080074	          0.63298453	          0.00000000	          0.14123151	          0.00000000	          0.00000000	          0.00000000	          0.00000000	          0.00000000	          0.00000000	          0.00000000	          4.57093303	          0.00000000	          0.00000000	          0.00000000	          0.00000000	
          2.18600000	        -55.17294749	        899.78587381	        -53.06947517	          0.63318577	          0.00000000	          0.14130526	          0.00000000	          0.00000000	          0.00000000	          0.00000000	          0.00000000	          0.00000000	          0.00000000	          4.53644983	          0.00000000	          0.00000000	          0.00000000	          0.00000000	
          2.18700000	        -54.72029127	        897.31225782	        -53.02283152	          0.63333322	          0.00000000	          0.14139379	          0.00000000	          0.00000000	          0.00000000	          0.00000000	          0.00000000	          0.00000000	          0.00000000	          4.48616644	          0.00000000	          0.00000000	          0.00000000	          0.00000000	
          2.18800000	        -54.27779894	        894.79581357	        -53.00582664	          0.63345529	          0.00000000	          0.14147958	          0.00000000	          0.00000000	          0.00000000	          0.00000000	          0.00000000	          0.00000000	          0.00000000	          4.42188473	          0.00000000	          0.00000000	          0.00000000	          0.00000000	
          2.18900000	        -53.84578827	        892.20596543	        -53.01011124	          0.63358712	          0.00000000	          0.14155197	          0.00000000	          0.00000000	          0.00000000	          0.00000000	          0.00000000	          0.00000000	          0.00000000	          4.35152876	          0.00000000	          0.00000000	          0.00000000	          0.00000000	
          2.19000000	        -53.41463127	        889.54197636	        -53.02182354	          0.63375380	          0.00000000	          0.14160758	          0.00000000	          0.00000000	          0.00000000	          0.00000000	          0.00000000	          0.00000000	          0.00000000	          4.28551493	          0.00000000	          0.00000000	          0.00000000	          0.00000000	
          2.19100000	        -52.97232317	        886.82875903	        -53.02342706	          0.63395718	          0.00000000	          0.14164836	          0.00000000	          0.00000000	          0.00000000	          0.00000000	          0.00000000	          0.00000000	          0.00000000	          4.23181335	          0.00000000	          0.00000000	          0.00000000	          0.00000000	
          2.19200000	        -52.50891107	        884.09648562	        -53.01055915	          0.63418876	          0.00000000	          0.14167975	          0.00000000	          0.00000000	          0.00000000	          0.00000000	          0.00000000	          0.00000000	          0.00000000	          4.19019520	          0.00000000	          0.00000000	          0.00000000	          0.00000000	
          2.19300000	        -52.01768078	        881.35186287	        -52.99716046	          0.63443936	          0.00000000	          0.14170741	          0.00000000	          0.00000000	          0.00000000	          0.00000000	          0.00000000	          0.00000000	          0.00000000	          4.15274110	          0.00000000	          0.00000000	          0.00000000	          0.00000000	
          2.19400000	        -51.50115098	        878.59231022	        -52.99869025	          0.63469181	          0.00000000	          0.14174076	          0.00000000	          0.00000000	          0.00000000	          0.00000000	          0.00000000	          0.00000000	          0.00000000	          4.11057712	          0.00000000	          0.00000000	          0.00000000	          0.00000000	
          2.19500000	        -50.96927600	        875.83968715	        -53.01941468	          0.63492459	          0.00000000	          0.14179242	          0.00000000	          0.00000000	          0.00000000	          0.00000000	          0.00000000	          0.00000000	          0.00000000	          4.05947302	          0.00000000	          0.00000000	          0.00000000	          0.00000000	
          2.19600000	        -50.42957161	        873.12830767	        -53.05678811	          0.63512583	          0.00000000	          0.14186353	          0.00000000	          0.00000000	          0.00000000	          0.00000000	          0.00000000	          0.00000000	          0.00000000	          4.00030970	          0.00000000	          0.00000000	          0.00000000	          0.00000000	
          2.19700000	        -49.88518976	        870.46536428	        -53.11173372	          0.63529916	          0.00000000	          0.14193597	          0.00000000	          0.00000000	          0.00000000	          0.00000000	          0.00000000	          0.00000000	          0.00000000	          3.93549392	          0.00000000	          0.00000000	          0.00000000	          0.00000000	
          2.19800000	        -49.34298583	        867.82568984	        -53.19065479	          0.63545658	          0.00000000	          0.14198782	          0.00000000	          0.00000000	          0.00000000	          0.00000000	          0.00000000	          0.00000000	          0.00000000	          3.86513647	          0.00000000	          0.00000000	          0.00000000	          0.00000000	
          2.19900000	        -48.81568565	        865.18963372	        -53.29792201	          0.63560758	          0.00000000	          0.14201373	          0.00000000	          0.00000000	          0.00000000	          0.00000000	          0.00000000	          0.00000000	          0.00000000	          3.78723804	          0.00000000	          0.00000000	          0.00000000	          0.00000000	
          2.20000000	        -48.30943942	        862.57199014	        -53.42888210	          0.63575546	          0.00000000	          0.14202464	          0.00000000	          0.00000000	          0.00000000	          0.00000000	          0.00000000	          0.00000000	          0.00000000	          3.70145378	          0.00000000	          0.00000000	          0.00000000	          0.00000000	
          2.20100000	        -47.81526856	        860.00019230	        -53.56186236	          0.63590170	          0.00000000	          0.14203203	          0.00000000	          0.00000000	          0.00000000	          0.00000000	          0.00000000	          0.00000000	          0.00000000	          3.61415415	          0.00000000	          0.00000000	          0.00000000	          0.00000000	
          2.20200000	        -47.32052868	        857.46809925	        -53.65800944	          0.63605416	          0.00000000	          0.14203789	          0.00000000	          0.00000000	          0.00000000	          0.00000000	          0.00000000	          0.00000000	          0.00000000	          3.53970448	          0.00000000	          0.00000000	          0.00000000	          0.00000000	
